<svg width="17" height="16" viewBox="0 0 17 16" fill="none" xmlns="http://www.w3.org/2000/svg">
<g clip-path="url(#clip0_21_3623)">
<path d="M5.38157 0.970198C5.17377 0.965627 4.96971 1.02587 4.79775 1.14263C4.6258 1.2594 4.49449 1.42692 4.4221 1.62176C4.34971 1.8166 4.33982 2.02913 4.39381 2.22985C4.44781 2.43057 4.563 2.60939 4.72337 2.74162L10.8425 7.9838L4.72337 13.2241C4.61243 13.3057 4.51952 13.4092 4.45047 13.5283C4.38141 13.6474 4.33768 13.7795 4.32203 13.9163C4.30638 14.0531 4.31915 14.1916 4.35952 14.3232C4.39989 14.4549 4.46701 14.5768 4.55667 14.6812C4.64632 14.7857 4.75659 14.8705 4.88055 14.9304C5.00452 14.9903 5.13952 15.0239 5.27709 15.0292C5.41467 15.0345 5.55186 15.0115 5.68007 14.9613C5.80829 14.9111 5.92476 14.835 6.0222 14.7378L13.0281 8.74356C13.1381 8.64967 13.2264 8.53314 13.287 8.4018C13.3476 8.27046 13.379 8.12751 13.379 7.98288C13.379 7.83824 13.3476 7.69529 13.287 7.56395C13.2264 7.43262 13.1381 7.31597 13.0281 7.22208L6.0222 1.2221C5.84522 1.06491 5.61822 0.975536 5.38157 0.969967V0.970198Z" fill="#323030"/>
</g>
<defs>
<clipPath id="clip0_21_3623">
<rect width="16" height="16" fill="white" transform="translate(0.847229 1.52588e-05)"/>
</clipPath>
</defs>
</svg>
