<svg width="15" height="9" viewBox="0 0 15 9" fill="none" xmlns="http://www.w3.org/2000/svg">
<path d="M14.4712 1.46744C14.4757 1.28561 14.416 1.10705 14.3002 0.956593C14.1844 0.806132 14.0183 0.691242 13.8251 0.627899C13.6318 0.564555 13.4211 0.555904 13.222 0.603148C13.023 0.650392 12.8457 0.751183 12.7145 0.89151L7.51604 6.24576L2.31938 0.891509C2.23852 0.794439 2.13587 0.713144 2.01775 0.652717C1.89964 0.59229 1.76862 0.554032 1.63298 0.540339C1.49733 0.526646 1.35997 0.537813 1.22944 0.57314C1.09891 0.608467 0.978016 0.667194 0.874401 0.745643C0.770787 0.824092 0.686738 0.920573 0.627339 1.02904C0.567941 1.13751 0.534578 1.25564 0.529315 1.37602C0.524051 1.4964 0.546935 1.61644 0.596684 1.72862C0.646435 1.84081 0.721899 1.94272 0.818355 2.02798L6.76261 8.15811C6.85572 8.25438 6.97128 8.33168 7.10152 8.38469C7.23177 8.43769 7.37353 8.46514 7.51695 8.46514C7.66038 8.46514 7.80214 8.43769 7.93239 8.38469C8.06263 8.33168 8.1783 8.25438 8.27141 8.15811L14.2214 2.02799C14.3773 1.87313 14.4659 1.6745 14.4714 1.46744L14.4712 1.46744Z" fill="#A0A0A0"/>
</svg>
