<svg width="10" height="10" viewBox="0 0 10 10" fill="none" xmlns="http://www.w3.org/2000/svg">
<g clip-path="url(#clip0_15_2427)">
<path d="M2.84527 0.531999C2.71319 0.529094 2.58349 0.567381 2.4742 0.641596C2.36491 0.71581 2.28146 0.822285 2.23545 0.946121C2.18943 1.06996 2.18315 1.20503 2.21747 1.3326C2.25178 1.46018 2.325 1.57384 2.42693 1.65788L6.31612 4.98969L2.42693 8.32033C2.35642 8.37215 2.29737 8.43794 2.25347 8.51365C2.20958 8.58935 2.18179 8.67332 2.17184 8.76026C2.1619 8.84719 2.17001 8.93523 2.19567 9.01889C2.22133 9.10255 2.26399 9.18003 2.32097 9.24644C2.37796 9.31285 2.44804 9.36672 2.52683 9.40479C2.60562 9.44286 2.69142 9.46424 2.77886 9.46761C2.8663 9.47099 2.95349 9.45632 3.03498 9.42443C3.11647 9.39255 3.1905 9.34418 3.25243 9.28236L7.7052 5.47258C7.77513 5.4129 7.83128 5.33884 7.86978 5.25536C7.90828 5.17189 7.92822 5.08103 7.92822 4.9891C7.92822 4.89718 7.90828 4.80632 7.86978 4.72285C7.83128 4.63937 7.77513 4.56523 7.7052 4.50556L3.25243 0.692105C3.13995 0.592194 2.99567 0.535392 2.84527 0.531852V0.531999Z" fill="#373737"/>
</g>
<defs>
<clipPath id="clip0_15_2427">
<rect width="9.70701" height="9.70701" fill="white" transform="translate(0.194336 0.1465)"/>
</clipPath>
</defs>
</svg>
