<svg width="24" height="24" viewBox="0 0 24 24" fill="none" xmlns="http://www.w3.org/2000/svg">
<g clip-path="url(#clip0_2_175)">
<path d="M22.9828 8.70548H18.0038L15.2108 2.31018C15.0554 1.95435 14.6409 1.79174 14.285 1.94723C13.9292 2.10262 13.7667 2.51713 13.9221 2.87301L16.4693 8.70552H7.53077L10.078 2.87301C10.2334 2.51713 10.0709 2.10266 9.71501 1.94723C9.35918 1.79174 8.94462 1.95426 8.78927 2.31018L5.99627 8.70548H1.01726C0.36593 8.70548 -0.117445 9.29512 0.0250551 9.91579L2.64701 21.3359C2.75112 21.7894 3.16334 22.1117 3.63921 22.1117H20.3608C20.8367 22.1117 21.2489 21.7894 21.353 21.3359L23.975 9.91579C24.1175 9.29517 23.6341 8.70548 22.9828 8.70548ZM6.12856 10.8619C6.03462 10.8619 5.93913 10.843 5.84749 10.8029C5.49162 10.6476 5.3291 10.2331 5.48454 9.87717L6.01273 8.6677H7.54723L6.77323 10.4399C6.65787 10.7043 6.39959 10.8619 6.12856 10.8619ZM8.4844 18.3617C8.4844 18.75 8.16959 19.0649 7.78127 19.0649C7.39296 19.0649 7.07815 18.75 7.07815 18.3617V13.2055C7.07815 12.8172 7.39296 12.5024 7.78127 12.5024C8.16959 12.5024 8.4844 12.8172 8.4844 13.2055V18.3617ZM12.7032 18.3617C12.7032 18.75 12.3883 19.0649 12 19.0649C11.6117 19.0649 11.2969 18.75 11.2969 18.3617V13.2055C11.2969 12.8172 11.6117 12.5024 12 12.5024C12.3883 12.5024 12.7032 12.8172 12.7032 13.2055V18.3617ZM16.9219 18.3617C16.9219 18.75 16.6071 19.0649 16.2188 19.0649C15.8305 19.0649 15.5157 18.75 15.5157 18.3617V13.2055C15.5157 12.8172 15.8305 12.5024 16.2188 12.5024C16.6071 12.5024 16.9219 12.8172 16.9219 13.2055V18.3617ZM18.1525 10.8029C18.0609 10.843 17.9654 10.8619 17.8715 10.8619C17.6005 10.8619 17.3422 10.7043 17.2268 10.44L16.4528 8.66774H17.9873L18.5155 9.87721C18.6709 10.2331 18.5084 10.6476 18.1525 10.8029Z" fill="white"/>
</g>
<defs>
<clipPath id="clip0_2_175">
<rect width="24" height="24" fill="white"/>
</clipPath>
</defs>
</svg>
