<svg width="164" height="102" viewBox="0 0 164 102" fill="none" xmlns="http://www.w3.org/2000/svg">
<g opacity="0.4">
<g clip-path="url(#clip0_8_1133)">
<path d="M138.677 6.63058C140.27 5.71051 142.965 7.38892 144.152 9.44489C145.339 11.5009 145.006 13.9128 143.412 14.8329C141.819 15.753 139.563 14.8359 138.376 12.7799C137.189 10.724 137.083 7.55065 138.677 6.63058Z" fill="white"/>
<path d="M130.471 11.3679C132.065 10.4478 134.76 12.1262 135.947 14.1822C137.134 16.2382 136.801 18.6501 135.207 19.5702C133.613 20.4903 131.358 19.5732 130.171 17.5172C128.984 15.4613 128.878 12.288 130.471 11.3679Z" fill="white"/>
<path d="M128.084 27.2006C126.427 25.8968 125.315 23.2878 126.355 21.964C127.394 20.6451 130.192 21.1134 131.851 22.4203C133.508 23.7241 134.005 25.8534 132.967 27.1723C131.925 28.4929 129.738 28.5062 128.084 27.2006Z" fill="white"/>
<path d="M153.582 12.4794C153.886 14.5645 152.781 16.4519 151.116 16.6937C149.454 16.9337 147.859 15.4381 147.559 13.3512C147.256 11.2613 148.25 8.60403 149.911 8.36397C151.578 8.12522 153.281 10.3926 153.582 12.4794Z" fill="white"/>
<path fill-rule="evenodd" clip-rule="evenodd" d="M158.201 27.7273C157.993 29.352 156.688 30.8575 155.062 30.9822C154.094 31.0563 153.057 30.6768 152.181 31.0882C151.376 31.4666 150.997 32.3759 150.605 33.1776C150.324 33.759 149.93 34.3647 149.398 34.6756C148.863 34.9804 148.142 35.019 147.498 34.9715C146.607 34.9101 145.63 34.7838 144.9 35.2917C144.106 35.8448 143.916 36.9326 143.368 37.7341C142.447 39.0794 140.491 39.4568 138.979 38.8251C137.468 38.1935 136.402 36.7378 135.909 35.1728C135.418 33.6029 135.432 31.9261 135.578 30.2924C135.922 26.4686 137.416 21.9443 140.89 19.9386C144.379 17.9241 149.029 18.9015 152.513 20.5151C154 21.2056 155.46 22.0317 156.574 23.2421C157.683 24.4512 158.41 26.1026 158.201 27.7273ZM147.529 23.6638C146.993 23.106 146.147 22.8298 145.469 23.1145C144.685 23.4438 144.133 24.4449 143.994 25.3143C143.171 25.0001 142.028 24.9779 141.351 25.4921C140.765 25.9371 140.581 26.8076 140.797 27.5505C141.024 28.3279 141.569 28.8804 142.236 29.2884C143.045 29.7788 144.031 30.0561 144.843 30.245C145.276 30.3481 145.715 30.4238 146.155 30.474C146.156 30.476 146.157 30.4765 146.16 30.4753C146.675 30.5352 147.174 30.2469 147.38 29.7706C147.382 29.7694 147.383 29.7677 147.381 29.7657C147.558 29.3596 147.712 28.9422 147.839 28.5152C148.081 27.7177 148.334 26.725 148.314 25.779C148.294 24.9972 148.088 24.2489 147.529 23.6638Z" fill="white"/>
</g>
<g clip-path="url(#clip1_8_1133)">
<path d="M27.9918 28.3373C29.7692 28.8136 30.4882 31.9062 29.8737 34.1993C29.2593 36.4924 27.3179 37.962 25.5404 37.4858C23.763 37.0095 22.8165 34.7661 23.431 32.473C24.0454 30.1798 26.2143 27.861 27.9918 28.3373Z" fill="white"/>
<path d="M18.8399 25.8851C20.6173 26.3614 21.3363 29.454 20.7218 31.7471C20.1074 34.0403 18.166 35.5099 16.3885 35.0336C14.6111 34.5574 13.6646 32.3139 14.279 30.0208C14.8935 27.7277 17.0624 25.4089 18.8399 25.8851Z" fill="white"/>
<path d="M5.95642 35.3925C5.70672 33.299 6.76544 30.668 8.43685 30.4673C10.1039 30.2691 11.7512 32.5787 12 34.6757C12.2497 36.7693 11.0961 38.6268 9.429 38.825C7.75851 39.0222 6.20267 37.4852 5.95642 35.3925Z" fill="white"/>
<path d="M34.3955 43.0128C33.1359 44.702 31.0199 45.2552 29.6719 44.2491C28.3272 43.244 28.257 41.0585 29.52 39.3703C30.7839 37.6786 33.3653 36.5021 34.71 37.5072C36.0571 38.5167 35.6585 41.3246 34.3955 43.0128Z" fill="white"/>
<path fill-rule="evenodd" clip-rule="evenodd" d="M26.8801 57.0611C25.5837 58.0624 23.5964 58.2043 22.3589 57.1431C21.6219 56.5108 21.157 55.5092 20.2465 55.1805C19.4098 54.8789 18.4986 55.2538 17.6546 55.5436C17.0449 55.756 16.3379 55.9056 15.7422 55.7497C15.1483 55.5869 14.6108 55.1038 14.1891 54.615C13.6029 53.942 13.0014 53.1618 12.1259 53.0046C11.1731 52.834 10.2697 53.469 9.31521 53.648C7.71292 53.9483 6.06281 52.8318 5.44077 51.3165C4.81873 49.8012 5.09393 48.0178 5.85227 46.5628C6.61497 45.1053 7.81066 43.9297 9.06902 42.8777C12.0165 40.4174 16.2719 38.2745 20.1465 39.3127C24.0383 40.3555 26.6348 44.3344 27.9573 47.9388C28.5211 49.479 28.9688 51.095 28.9005 52.7386C28.8298 54.3778 28.1764 56.0599 26.8801 57.0611ZM22.2067 46.6411C22.2223 45.8678 21.8195 45.0744 21.1386 44.7962C20.3515 44.4747 19.2531 44.7921 18.5399 45.3085C18.1804 44.5047 17.3879 43.6807 16.5455 43.5655C15.8167 43.466 15.0712 43.9516 14.6981 44.6292C14.3089 45.3392 14.3036 46.1153 14.4868 46.8755C14.7122 47.7945 15.2135 48.6879 15.654 49.3955C15.8876 49.775 16.1439 50.1385 16.4196 50.485C16.419 50.4873 16.4198 50.4888 16.4221 50.4894C16.7442 50.8963 17.3011 51.0455 17.7835 50.8542C17.7858 50.8548 17.7873 50.8539 17.7879 50.8516C18.1999 50.6894 18.6036 50.5028 18.9957 50.2909C19.731 49.8984 20.6118 49.3753 21.2665 48.6922C21.8053 48.1254 22.1887 47.4506 22.2067 46.6411Z" fill="white"/>
</g>
<g clip-path="url(#clip2_8_1133)">
<path d="M96.3181 66.8851C98.0955 66.4089 100.264 68.7276 100.879 71.0208C101.493 73.3139 100.547 75.5573 98.7694 76.0336C96.992 76.5099 95.0506 75.0403 94.4361 72.7471C93.8217 70.454 94.5406 67.3614 96.3181 66.8851Z" fill="white"/>
<path d="M87.1662 69.3373C88.9437 68.861 91.1126 71.1798 91.727 73.4729C92.3415 75.7661 91.395 78.0095 89.6175 78.4858C87.8401 78.962 85.8987 77.4924 85.2843 75.1993C84.6698 72.9061 85.3888 69.8135 87.1662 69.3373Z" fill="white"/>
<path d="M80.7625 84.0128C79.4995 82.3245 79.1009 79.5167 80.448 78.5072C81.7926 77.502 84.3741 78.6785 85.638 80.3702C86.901 82.0584 86.8307 84.244 85.4861 85.2491C84.138 86.2551 82.0221 85.7019 80.7625 84.0128Z" fill="white"/>
<path d="M109.202 76.3925C108.955 78.4851 107.399 80.0222 105.729 79.825C104.062 79.6268 102.908 77.7692 103.158 75.6757C103.407 73.5787 105.054 71.2691 106.721 71.4672C108.393 71.6679 109.451 74.2989 109.202 76.3925Z" fill="white"/>
<path fill-rule="evenodd" clip-rule="evenodd" d="M109.717 92.3164C109.095 93.8318 107.445 94.9482 105.843 94.648C104.888 94.4689 103.985 93.834 103.032 94.0046C102.157 94.1617 101.555 94.942 100.969 95.6149C100.547 96.1038 100.01 96.5868 99.4158 96.7496C98.8201 96.9055 98.1131 96.756 97.5034 96.5435C96.6594 96.2538 95.7482 95.8789 94.9115 96.1804C94.001 96.5092 93.5361 97.5107 92.7991 98.143C91.5616 99.2042 89.5743 99.0624 88.2779 98.0611C86.9816 97.0598 86.3282 95.3777 86.2575 93.7385C86.1892 92.0949 86.6369 90.4789 87.2007 88.9387C88.5232 85.3343 91.1369 81.3508 95.0115 80.3126C98.9033 79.2698 103.141 81.4174 106.089 83.8776C107.347 84.9296 108.543 86.1052 109.306 87.5627C110.064 89.0177 110.339 90.8011 109.717 92.3164ZM100.46 85.6291C100.087 84.9516 99.3413 84.466 98.6125 84.5654C97.7701 84.6806 96.9776 85.5046 96.6181 86.3084C95.9049 85.7921 94.8065 85.4747 94.0194 85.7961C93.3385 86.0744 92.9357 86.8677 92.9513 87.641C92.9693 88.4505 93.3527 89.1253 93.8915 89.6921C94.5462 90.3752 95.427 90.8983 96.1623 91.2909C96.5544 91.5027 96.9581 91.6893 97.3701 91.8516C97.3707 91.8539 97.3722 91.8547 97.3745 91.8541C97.8569 92.0454 98.4138 91.8962 98.7359 91.4893C98.7382 91.4887 98.739 91.4872 98.7384 91.4849C99.0141 91.1384 99.2704 90.7749 99.504 90.3954C99.9445 89.6878 100.446 88.7944 100.671 87.8755C100.854 87.1152 100.849 86.3391 100.46 85.6291Z" fill="white"/>
</g>
</g>
<defs>
<clipPath id="clip0_8_1133">
<rect width="31.9724" height="31.9724" fill="white" transform="translate(120.149 15.9861) rotate(-30)"/>
</clipPath>
<clipPath id="clip1_8_1133">
<rect width="31.9724" height="31.9724" fill="white" transform="translate(8.27505 21.8513) rotate(15)"/>
</clipPath>
<clipPath id="clip2_8_1133">
<rect width="31.9724" height="31.9724" fill="white" transform="translate(76 71.1265) rotate(-15)"/>
</clipPath>
</defs>
</svg>
