<svg width="32" height="32" viewBox="0 0 32 32" fill="none" xmlns="http://www.w3.org/2000/svg">
<g clip-path="url(#clip0_4_269)">
<path d="M20.7236 1.16187C22.5637 1.16187 24.0586 3.96301 24.0586 6.33704C24.0586 8.71107 22.5637 10.6331 20.7236 10.6331C18.8834 10.6331 17.3885 8.71107 17.3885 6.33704C17.3885 3.96301 18.8834 1.16187 20.7236 1.16187Z" fill="#7684E7"/>
<path d="M11.2488 1.16187C13.0889 1.16187 14.5838 3.96301 14.5838 6.33704C14.5838 8.71107 13.0889 10.6331 11.2488 10.6331C9.40865 10.6331 7.91376 8.71107 7.91376 6.33704C7.91376 3.96301 9.40865 1.16187 11.2488 1.16187Z" fill="#7684E7"/>
<path d="M1.26507 13.6798C0.482029 11.7222 0.823719 8.90686 2.38624 8.28043C3.9452 7.65756 6.13415 9.46211 6.91718 11.4233C7.70022 13.3809 7.06667 15.4737 5.50771 16.0966C3.9452 16.7195 2.04455 15.6374 1.26507 13.6798Z" fill="#7684E7"/>
<path d="M30.7073 13.6798C29.9278 15.6374 28.0272 16.7195 26.4647 16.0966C24.9057 15.4737 24.2721 13.3809 25.0552 11.4233C25.8382 9.46211 28.0272 7.65756 29.5861 8.28043C31.1486 8.90686 31.4903 11.7222 30.7073 13.6798Z" fill="#7684E7"/>
<path fill-rule="evenodd" clip-rule="evenodd" d="M27.084 29.1946C26.091 30.4973 24.2081 31.1487 22.7382 30.444C21.8626 30.024 21.1543 29.1769 20.1897 29.095C19.3035 29.0202 18.5204 29.6182 17.7801 30.1165C17.2462 30.4795 16.602 30.807 15.9862 30.8106C15.3705 30.807 14.7262 30.4795 14.1924 30.1165C13.452 29.6182 12.669 29.0202 11.7827 29.095C10.8182 29.1769 10.1099 30.024 9.2343 30.444C7.76432 31.1487 5.88147 30.4973 4.88843 29.1946C3.8954 27.892 3.69964 26.0981 4.05557 24.4964C4.41505 22.8912 5.26572 21.4461 6.20892 20.1043C8.41923 16.965 11.9749 13.7937 15.9862 13.7937C20.0153 13.7937 23.5532 16.965 25.7635 20.1043C26.7067 21.4461 27.5574 22.8912 27.9169 24.4964C28.2728 26.0981 28.0771 27.892 27.084 29.1946ZM19.8729 20.3392C19.6879 19.5882 19.0935 18.9262 18.3638 18.8336C17.5203 18.7268 16.5415 19.3177 15.9862 20.0011C15.431 19.3177 14.4522 18.7268 13.6086 18.8336C12.879 18.9262 12.2846 19.5882 12.0995 20.3392C11.9073 21.1258 12.1031 21.8768 12.4768 22.5637C12.9324 23.393 13.6478 24.1263 14.2564 24.6957C14.5803 25.0018 14.922 25.2866 15.2779 25.55C15.2779 25.5523 15.2791 25.5535 15.2815 25.5535C15.6979 25.8632 16.2745 25.8632 16.691 25.5535C16.6933 25.5535 16.6945 25.5523 16.6945 25.55C17.0505 25.2866 17.3921 25.0018 17.716 24.6957C18.3247 24.1263 19.0401 23.393 19.4957 22.5637C19.8694 21.8768 20.0651 21.1258 19.8729 20.3392Z" fill="#7684E7"/>
</g>
<defs>
<clipPath id="clip0_4_269">
<rect width="31.9724" height="31.9724" fill="white"/>
</clipPath>
</defs>
</svg>
